<?xml version="1.0" encoding="UTF-8" standalone="no"?>
<!DOCTYPE svg PUBLIC "-//W3C//DTD SVG 1.1//EN"
 "http://www.w3.org/Graphics/SVG/1.1/DTD/svg11.dtd">
<!-- Generated by graphviz version 2.42.4 (0)
 -->
<!-- Title: G Pages: 1 -->
<svg width="921pt" height="705pt"
 viewBox="0.00 0.00 921.07 704.87" xmlns="http://www.w3.org/2000/svg" xmlns:xlink="http://www.w3.org/1999/xlink">
<g id="graph0" class="graph" transform="scale(1 1) rotate(0) translate(18 686.87)">
<title>G</title>
<polygon fill="white" stroke="transparent" points="-18,18 -18,-686.87 903.07,-686.87 903.07,18 -18,18"/>
<g id="clust1" class="cluster">
<title>cluster_ui</title>
<path fill="white" stroke="#e5ece9" d="M677.07,-431.87C677.07,-431.87 865.07,-431.87 865.07,-431.87 871.07,-431.87 877.07,-437.87 877.07,-443.87 877.07,-443.87 877.07,-648.87 877.07,-648.87 877.07,-654.87 871.07,-660.87 865.07,-660.87 865.07,-660.87 677.07,-660.87 677.07,-660.87 671.07,-660.87 665.07,-654.87 665.07,-648.87 665.07,-648.87 665.07,-443.87 665.07,-443.87 665.07,-437.87 671.07,-431.87 677.07,-431.87"/>
<text text-anchor="middle" x="771.07" y="-645.67" font-family="Noto Sans" font-size="14.00">React Native application layer</text>
</g>
<g id="clust2" class="cluster">
<title>cluster_native</title>
<path fill="white" stroke="#e5ece9" d="M372.07,-8C372.07,-8 791.07,-8 791.07,-8 797.07,-8 803.07,-14 803.07,-20 803.07,-20 803.07,-398.87 803.07,-398.87 803.07,-404.87 797.07,-410.87 791.07,-410.87 791.07,-410.87 372.07,-410.87 372.07,-410.87 366.07,-410.87 360.07,-404.87 360.07,-398.87 360.07,-398.87 360.07,-20 360.07,-20 360.07,-14 366.07,-8 372.07,-8"/>
<text text-anchor="middle" x="581.57" y="-395.67" font-family="Noto Sans" font-size="14.00">Kotlin reliability core</text>
</g>
<!-- screens -->
<g id="node1" class="node">
<title>screens</title>
<path fill="#d7f5ee" stroke="#006a60" stroke-width="1.3" d="M834.07,-629.87C834.07,-629.87 708.07,-629.87 708.07,-629.87 702.07,-629.87 696.07,-623.87 696.07,-617.87 696.07,-617.87 696.07,-605.87 696.07,-605.87 696.07,-599.87 702.07,-593.87 708.07,-593.87 708.07,-593.87 834.07,-593.87 834.07,-593.87 840.07,-593.87 846.07,-599.87 846.07,-605.87 846.07,-605.87 846.07,-617.87 846.07,-617.87 846.07,-623.87 840.07,-629.87 834.07,-629.87"/>
<text text-anchor="middle" x="771.07" y="-609.07" font-family="Noto Sans" font-size="11.00" fill="#334155">Screens + design system</text>
</g>
<!-- hooks -->
<g id="node2" class="node">
<title>hooks</title>
<path fill="#d7f5ee" stroke="#006a60" stroke-width="1.3" d="M839.07,-552.87C839.07,-552.87 703.07,-552.87 703.07,-552.87 697.07,-552.87 691.07,-546.87 691.07,-540.87 691.07,-540.87 691.07,-528.87 691.07,-528.87 691.07,-522.87 697.07,-516.87 703.07,-516.87 703.07,-516.87 839.07,-516.87 839.07,-516.87 845.07,-516.87 851.07,-522.87 851.07,-528.87 851.07,-528.87 851.07,-540.87 851.07,-540.87 851.07,-546.87 845.07,-552.87 839.07,-552.87"/>
<text text-anchor="middle" x="771.07" y="-532.07" font-family="Noto Sans" font-size="11.00" fill="#334155">Feature hooks + validation</text>
</g>
<!-- screens&#45;&gt;hooks -->
<g id="edge1" class="edge">
<title>screens&#45;&gt;hooks</title>
<path fill="none" stroke="#334155" stroke-width="1.1" d="M771.07,-593.85C771.07,-583.95 771.07,-571.3 771.07,-560.34"/>
<polygon fill="#334155" stroke="#334155" stroke-width="1.1" points="773.52,-560.08 771.07,-553.08 768.62,-560.08 773.52,-560.08"/>
</g>
<!-- bridge -->
<g id="node3" class="node">
<title>bridge</title>
<path fill="#ede9fe" stroke="#7c3aed" stroke-width="1.3" d="M848.07,-475.87C848.07,-475.87 694.07,-475.87 694.07,-475.87 688.07,-475.87 682.07,-469.87 682.07,-463.87 682.07,-463.87 682.07,-451.87 682.07,-451.87 682.07,-445.87 688.07,-439.87 694.07,-439.87 694.07,-439.87 848.07,-439.87 848.07,-439.87 854.07,-439.87 860.07,-445.87 860.07,-451.87 860.07,-451.87 860.07,-463.87 860.07,-463.87 860.07,-469.87 854.07,-475.87 848.07,-475.87"/>
<text text-anchor="middle" x="771.07" y="-455.07" font-family="Noto Sans" font-size="11.00" fill="#334155">Typed TurboModule contracts</text>
</g>
<!-- hooks&#45;&gt;bridge -->
<g id="edge2" class="edge">
<title>hooks&#45;&gt;bridge</title>
<path fill="none" stroke="#334155" stroke-width="1.1" d="M771.07,-516.85C771.07,-506.95 771.07,-494.3 771.07,-483.34"/>
<polygon fill="#334155" stroke="#334155" stroke-width="1.1" points="773.52,-483.08 771.07,-476.08 768.62,-483.08 773.52,-483.08"/>
</g>
<!-- repo -->
<g id="node4" class="node">
<title>repo</title>
<path fill="#d7f5ee" stroke="#006a60" stroke-width="1.3" d="M699.07,-379.87C699.07,-379.87 593.07,-379.87 593.07,-379.87 587.07,-379.87 581.07,-373.87 581.07,-367.87 581.07,-367.87 581.07,-355.87 581.07,-355.87 581.07,-349.87 587.07,-343.87 593.07,-343.87 593.07,-343.87 699.07,-343.87 699.07,-343.87 705.07,-343.87 711.07,-349.87 711.07,-355.87 711.07,-355.87 711.07,-367.87 711.07,-367.87 711.07,-373.87 705.07,-379.87 699.07,-379.87"/>
<text text-anchor="middle" x="646.07" y="-359.07" font-family="Noto Sans" font-size="11.00" fill="#334155">ReminderRepository</text>
</g>
<!-- bridge&#45;&gt;repo -->
<g id="edge11" class="edge">
<title>bridge&#45;&gt;repo</title>
<path fill="none" stroke="#334155" stroke-width="1.1" d="M748.43,-439.85C727.77,-424.31 697.12,-401.26 674.75,-384.44"/>
<polygon fill="#334155" stroke="#334155" stroke-width="1.1" points="676.03,-382.33 668.96,-380.08 673.08,-386.25 676.03,-382.33"/>
</g>
<!-- scheduler -->
<g id="node7" class="node">
<title>scheduler</title>
<path fill="#d7f5ee" stroke="#006a60" stroke-width="1.3" d="M520.07,-137.87C520.07,-137.87 380.07,-137.87 380.07,-137.87 374.07,-137.87 368.07,-131.87 368.07,-125.87 368.07,-125.87 368.07,-113.87 368.07,-113.87 368.07,-107.87 374.07,-101.87 380.07,-101.87 380.07,-101.87 520.07,-101.87 520.07,-101.87 526.07,-101.87 532.07,-107.87 532.07,-113.87 532.07,-113.87 532.07,-125.87 532.07,-125.87 532.07,-131.87 526.07,-137.87 520.07,-137.87"/>
<text text-anchor="middle" x="450.07" y="-117.07" font-family="Noto Sans" font-size="11.00" fill="#334155">GlobalNextAlarmScheduler</text>
</g>
<!-- bridge&#45;&gt;scheduler -->
<g id="edge12" class="edge">
<title>bridge&#45;&gt;scheduler</title>
<path fill="none" stroke="#334155" stroke-width="1.1" d="M795.78,-439.8C816.96,-422.96 844.07,-395.1 844.07,-362.87 844.07,-362.87 844.07,-362.87 844.07,-195.87 844.07,-192.02 655.63,-157.62 539.39,-136.77"/>
<polygon fill="#334155" stroke="#334155" stroke-width="1.1" points="539.51,-134.31 532.19,-135.48 538.64,-139.13 539.51,-134.31"/>
</g>
<!-- room -->
<g id="node5" class="node">
<title>room</title>
<path fill="#d7f5ee" stroke="#006a60" stroke-width="1.3" d="M631.57,-301.87C631.57,-301.87 550.57,-301.87 550.57,-301.87 544.57,-301.87 538.57,-295.87 538.57,-289.87 538.57,-289.87 538.57,-277.87 538.57,-277.87 538.57,-271.87 544.57,-265.87 550.57,-265.87 550.57,-265.87 631.57,-265.87 631.57,-265.87 637.57,-265.87 643.57,-271.87 643.57,-277.87 643.57,-277.87 643.57,-289.87 643.57,-289.87 643.57,-295.87 637.57,-301.87 631.57,-301.87"/>
<text text-anchor="middle" x="591.07" y="-281.07" font-family="Noto Sans" font-size="11.00" fill="#334155">Room database</text>
</g>
<!-- repo&#45;&gt;room -->
<g id="edge3" class="edge">
<title>repo&#45;&gt;room</title>
<path fill="none" stroke="#334155" stroke-width="1.1" d="M633.59,-343.62C625.92,-333.03 616.01,-319.34 607.69,-307.83"/>
<polygon fill="#334155" stroke="#334155" stroke-width="1.1" points="609.59,-306.28 603.5,-302.05 605.62,-309.15 609.59,-306.28"/>
</g>
<!-- datastore -->
<g id="node6" class="node">
<title>datastore</title>
<path fill="#d7f5ee" stroke="#006a60" stroke-width="1.3" d="M782.57,-301.87C782.57,-301.87 687.57,-301.87 687.57,-301.87 681.57,-301.87 675.57,-295.87 675.57,-289.87 675.57,-289.87 675.57,-277.87 675.57,-277.87 675.57,-271.87 681.57,-265.87 687.57,-265.87 687.57,-265.87 782.57,-265.87 782.57,-265.87 788.57,-265.87 794.57,-271.87 794.57,-277.87 794.57,-277.87 794.57,-289.87 794.57,-289.87 794.57,-295.87 788.57,-301.87 782.57,-301.87"/>
<text text-anchor="middle" x="735.07" y="-281.07" font-family="Noto Sans" font-size="11.00" fill="#334155">DataStore settings</text>
</g>
<!-- repo&#45;&gt;datastore -->
<g id="edge4" class="edge">
<title>repo&#45;&gt;datastore</title>
<path fill="none" stroke="#334155" stroke-width="1.1" d="M666.27,-343.62C679.01,-332.74 695.59,-318.58 709.28,-306.89"/>
<polygon fill="#334155" stroke="#334155" stroke-width="1.1" points="711.22,-308.46 714.95,-302.05 708.04,-304.73 711.22,-308.46"/>
</g>
<!-- files -->
<g id="node12" class="node">
<title>files</title>
<path fill="#d7f5ee" stroke="#006a60" stroke-width="1.3" d="M494.07,-302.87C494.07,-302.87 380.07,-302.87 380.07,-302.87 374.07,-302.87 368.07,-296.87 368.07,-290.87 368.07,-290.87 368.07,-276.87 368.07,-276.87 368.07,-270.87 374.07,-264.87 380.07,-264.87 380.07,-264.87 494.07,-264.87 494.07,-264.87 500.07,-264.87 506.07,-270.87 506.07,-276.87 506.07,-276.87 506.07,-290.87 506.07,-290.87 506.07,-296.87 500.07,-302.87 494.07,-302.87"/>
<text text-anchor="middle" x="437.07" y="-287.07" font-family="Noto Sans" font-size="11.00" fill="#334155">MediaStoreRepository</text>
<text text-anchor="middle" x="437.07" y="-275.07" font-family="Noto Sans" font-size="11.00" fill="#334155">app&#45;specific files</text>
</g>
<!-- repo&#45;&gt;files -->
<g id="edge5" class="edge">
<title>repo&#45;&gt;files</title>
<path fill="none" stroke="#334155" stroke-width="1.1" d="M599.17,-343.81C567.93,-332.46 526.71,-317.47 493.65,-305.45"/>
<polygon fill="#334155" stroke="#334155" stroke-width="1.1" points="494.15,-303.02 486.73,-302.93 492.47,-307.62 494.15,-303.02"/>
</g>
<!-- receiver -->
<g id="node8" class="node">
<title>receiver</title>
<path fill="#d7f5ee" stroke="#006a60" stroke-width="1.3" d="M684.07,-214.87C684.07,-214.87 496.07,-214.87 496.07,-214.87 490.07,-214.87 484.07,-208.87 484.07,-202.87 484.07,-202.87 484.07,-190.87 484.07,-190.87 484.07,-184.87 490.07,-178.87 496.07,-178.87 496.07,-178.87 684.07,-178.87 684.07,-178.87 690.07,-178.87 696.07,-184.87 696.07,-190.87 696.07,-190.87 696.07,-202.87 696.07,-202.87 696.07,-208.87 690.07,-214.87 684.07,-214.87"/>
<text text-anchor="middle" x="590.07" y="-194.07" font-family="Noto Sans" font-size="11.00" fill="#334155">Alarm / boot / time&#45;change receivers</text>
</g>
<!-- room&#45;&gt;receiver -->
<g id="edge13" class="edge">
<title>room&#45;&gt;receiver</title>
<path fill="none" stroke="#334155" stroke-width="1.1" stroke-dasharray="5,2" d="M590.87,-265.67C590.72,-253.23 590.52,-236.23 590.36,-222.37"/>
<polygon fill="#334155" stroke="#334155" stroke-width="1.1" points="592.8,-222.02 590.27,-215.05 587.9,-222.07 592.8,-222.02"/>
<text text-anchor="middle" x="623.07" y="-237.67" font-family="Noto Sans" font-size="9.00" fill="#334155">due occurrence</text>
</g>
<!-- scheduler&#45;&gt;room -->
<g id="edge6" class="edge">
<title>scheduler&#45;&gt;room</title>
<path fill="none" stroke="#334155" stroke-width="1.1" d="M449.18,-138.18C449.02,-158.45 451.58,-192.14 468.07,-214.87 483.78,-236.54 508.61,-252.12 531.86,-262.85"/>
<polygon fill="#334155" stroke="#334155" stroke-width="1.1" points="530.98,-265.14 538.37,-265.76 532.97,-260.67 530.98,-265.14"/>
</g>
<!-- android -->
<g id="node13" class="node">
<title>android</title>
<ellipse fill="#f1f5f9" stroke="#334155" stroke-width="1.3" cx="176.07" cy="-34" rx="176.14" ry="26.74"/>
<text text-anchor="middle" x="176.07" y="-37.2" font-family="Noto Sans" font-size="11.00" fill="#334155">Android OS</text>
<text text-anchor="middle" x="176.07" y="-25.2" font-family="Noto Sans" font-size="11.00" fill="#334155">AlarmManager, Keyguard, notifications, SAF</text>
</g>
<!-- scheduler&#45;&gt;android -->
<g id="edge14" class="edge">
<title>scheduler&#45;&gt;android</title>
<path fill="none" stroke="#334155" stroke-width="1.1" d="M394.29,-101.8C355.38,-89.89 302.78,-73.79 258.97,-60.38"/>
<polygon fill="#334155" stroke="#334155" stroke-width="1.1" points="259.43,-57.96 252.02,-58.25 258,-62.64 259.43,-57.96"/>
</g>
<!-- receiver&#45;&gt;scheduler -->
<g id="edge7" class="edge">
<title>receiver&#45;&gt;scheduler</title>
<path fill="none" stroke="#334155" stroke-width="1.1" d="M558.3,-178.85C537.59,-167.76 510.45,-153.22 488.53,-141.47"/>
<polygon fill="#334155" stroke="#334155" stroke-width="1.1" points="489.52,-139.23 482.2,-138.08 487.21,-143.55 489.52,-139.23"/>
</g>
<!-- notify -->
<g id="node9" class="node">
<title>notify</title>
<path fill="#d7f5ee" stroke="#006a60" stroke-width="1.3" d="M699.57,-137.87C699.57,-137.87 576.57,-137.87 576.57,-137.87 570.57,-137.87 564.57,-131.87 564.57,-125.87 564.57,-125.87 564.57,-113.87 564.57,-113.87 564.57,-107.87 570.57,-101.87 576.57,-101.87 576.57,-101.87 699.57,-101.87 699.57,-101.87 705.57,-101.87 711.57,-107.87 711.57,-113.87 711.57,-113.87 711.57,-125.87 711.57,-125.87 711.57,-131.87 705.57,-137.87 699.57,-137.87"/>
<text text-anchor="middle" x="638.07" y="-117.07" font-family="Noto Sans" font-size="11.00" fill="#334155">NotificationCoordinator</text>
</g>
<!-- receiver&#45;&gt;notify -->
<g id="edge8" class="edge">
<title>receiver&#45;&gt;notify</title>
<path fill="none" stroke="#334155" stroke-width="1.1" d="M600.96,-178.85C607.54,-168.57 616.02,-155.32 623.21,-144.08"/>
<polygon fill="#334155" stroke="#334155" stroke-width="1.1" points="625.34,-145.3 627.05,-138.08 621.22,-142.66 625.34,-145.3"/>
</g>
<!-- ring -->
<g id="node10" class="node">
<title>ring</title>
<path fill="#d7f5ee" stroke="#006a60" stroke-width="1.3" d="M554.57,-52C554.57,-52 447.57,-52 447.57,-52 441.57,-52 435.57,-46 435.57,-40 435.57,-40 435.57,-28 435.57,-28 435.57,-22 441.57,-16 447.57,-16 447.57,-16 554.57,-16 554.57,-16 560.57,-16 566.57,-22 566.57,-28 566.57,-28 566.57,-40 566.57,-40 566.57,-46 560.57,-52 554.57,-52"/>
<text text-anchor="middle" x="501.07" y="-31.2" font-family="Noto Sans" font-size="11.00" fill="#334155">AlarmRingingService</text>
</g>
<!-- notify&#45;&gt;ring -->
<g id="edge9" class="edge">
<title>notify&#45;&gt;ring</title>
<path fill="none" stroke="#334155" stroke-width="1.1" d="M610.02,-101.7C588.31,-88.41 558.17,-69.96 535.09,-55.83"/>
<polygon fill="#334155" stroke="#334155" stroke-width="1.1" points="536.34,-53.72 529.09,-52.15 533.78,-57.9 536.34,-53.72"/>
</g>
<!-- player -->
<g id="node11" class="node">
<title>player</title>
<path fill="#d7f5ee" stroke="#006a60" stroke-width="1.3" d="M767.57,-52C767.57,-52 610.57,-52 610.57,-52 604.57,-52 598.57,-46 598.57,-40 598.57,-40 598.57,-28 598.57,-28 598.57,-22 604.57,-16 610.57,-16 610.57,-16 767.57,-16 767.57,-16 773.57,-16 779.57,-22 779.57,-28 779.57,-28 779.57,-40 779.57,-40 779.57,-46 773.57,-52 767.57,-52"/>
<text text-anchor="middle" x="689.07" y="-31.2" font-family="Noto Sans" font-size="11.00" fill="#334155">Native alarm + media activities</text>
</g>
<!-- notify&#45;&gt;player -->
<g id="edge10" class="edge">
<title>notify&#45;&gt;player</title>
<path fill="none" stroke="#334155" stroke-width="1.1" d="M648.64,-101.49C656.28,-88.93 666.68,-71.82 675.02,-58.1"/>
<polygon fill="#334155" stroke="#334155" stroke-width="1.1" points="677.15,-59.32 678.69,-52.07 672.96,-56.78 677.15,-59.32"/>
</g>
<!-- notify&#45;&gt;android -->
<g id="edge16" class="edge">
<title>notify&#45;&gt;android</title>
<path fill="none" stroke="#334155" stroke-width="1.1" d="M564.41,-104.9C558.88,-103.87 553.39,-102.85 548.07,-101.87 463.52,-86.29 368.07,-69.14 295.03,-56.11"/>
<polygon fill="#334155" stroke="#334155" stroke-width="1.1" points="295.35,-53.68 288.03,-54.86 294.49,-58.5 295.35,-53.68"/>
</g>
<!-- files&#45;&gt;android -->
<g id="edge17" class="edge">
<title>files&#45;&gt;android</title>
<path fill="none" stroke="#334155" stroke-width="1.1" d="M415.1,-264.76C382.89,-237.94 321.33,-185.68 272.07,-137.87 248.25,-114.76 222.68,-87.2 203.92,-66.43"/>
<polygon fill="#334155" stroke="#334155" stroke-width="1.1" points="205.56,-64.6 199.06,-61.03 201.92,-67.88 205.56,-64.6"/>
</g>
<!-- android&#45;&gt;receiver -->
<g id="edge15" class="edge">
<title>android&#45;&gt;receiver</title>
<path fill="none" stroke="#334155" stroke-width="1.1" d="M212.22,-60.36C246.72,-83.51 300.88,-117.19 352.07,-137.87 394.56,-155.04 443.44,-168.03 485.81,-177.32"/>
<polygon fill="#334155" stroke="#334155" stroke-width="1.1" points="485.47,-179.75 492.83,-178.83 486.5,-174.96 485.47,-179.75"/>
</g>
</g>
</svg>
