<?xml version="1.0" encoding="UTF-8" standalone="no"?>
<!DOCTYPE svg PUBLIC "-//W3C//DTD SVG 1.1//EN"
 "http://www.w3.org/Graphics/SVG/1.1/DTD/svg11.dtd">
<!-- Generated by graphviz version 2.42.4 (0)
 -->
<!-- Title: G Pages: 1 -->
<svg width="1233pt" height="323pt"
 viewBox="0.00 0.00 1233.13 323.00" xmlns="http://www.w3.org/2000/svg" xmlns:xlink="http://www.w3.org/1999/xlink">
<g id="graph0" class="graph" transform="scale(1 1) rotate(0) translate(18 305)">
<title>G</title>
<polygon fill="white" stroke="transparent" points="-18,18 -18,-305 1215.13,-305 1215.13,18 -18,18"/>
<!-- user -->
<g id="node1" class="node">
<title>user</title>
<ellipse fill="#f1f5f9" stroke="#006a60" stroke-width="1.3" cx="34.65" cy="-27" rx="34.8" ry="18.27"/>
<text text-anchor="middle" x="34.65" y="-24.2" font-family="Noto Sans" font-size="11.00" fill="#334155">User</text>
</g>
<!-- ui -->
<g id="node2" class="node">
<title>ui</title>
<path fill="#d7f5ee" stroke="#006a60" stroke-width="1.3" d="M261.3,-111C261.3,-111 182.3,-111 182.3,-111 176.3,-111 170.3,-105 170.3,-99 170.3,-99 170.3,-87 170.3,-87 170.3,-81 176.3,-75 182.3,-75 182.3,-75 261.3,-75 261.3,-75 267.3,-75 273.3,-81 273.3,-87 273.3,-87 273.3,-99 273.3,-99 273.3,-105 267.3,-111 261.3,-111"/>
<text text-anchor="middle" x="221.8" y="-90.2" font-family="Noto Sans" font-size="11.00" fill="#334155">React Native UI</text>
</g>
<!-- user&#45;&gt;ui -->
<g id="edge1" class="edge">
<title>user&#45;&gt;ui</title>
<path fill="none" stroke="#334155" stroke-width="1.1" d="M63.77,-37.02C90.02,-46.38 130.01,-60.64 163.06,-72.42"/>
<polygon fill="#334155" stroke="#334155" stroke-width="1.1" points="162.58,-74.85 170,-74.89 164.23,-70.23 162.58,-74.85"/>
<text text-anchor="middle" x="119.8" y="-69.8" font-family="Noto Sans" font-size="9.00" fill="#334155">save reminder</text>
</g>
<!-- present -->
<g id="node7" class="node">
<title>present</title>
<path fill="#d7f5ee" stroke="#006a60" stroke-width="1.3" d="M1185.13,-84C1185.13,-84 1079.13,-84 1079.13,-84 1073.13,-84 1067.13,-78 1067.13,-72 1067.13,-72 1067.13,-60 1067.13,-60 1067.13,-54 1073.13,-48 1079.13,-48 1079.13,-48 1185.13,-48 1185.13,-48 1191.13,-48 1197.13,-54 1197.13,-60 1197.13,-60 1197.13,-72 1197.13,-72 1197.13,-78 1191.13,-84 1185.13,-84"/>
<text text-anchor="middle" x="1132.13" y="-63.2" font-family="Noto Sans" font-size="11.00" fill="#334155">Notification / Activity</text>
</g>
<!-- user&#45;&gt;present -->
<g id="edge8" class="edge">
<title>user&#45;&gt;present</title>
<path fill="none" stroke="#334155" stroke-width="1.1" d="M66.57,-19.69C103.17,-11.7 166.06,0 220.8,0 220.8,0 220.8,0 885.13,0 956.08,0 1034.73,-25.93 1083.56,-45.28"/>
<polygon fill="#334155" stroke="#334155" stroke-width="1.1" points="1082.84,-47.63 1090.25,-47.97 1084.66,-43.08 1082.84,-47.63"/>
<text text-anchor="middle" x="517.3" y="-2.8" font-family="Noto Sans" font-size="9.00" fill="#334155">Play or Snooze</text>
</g>
<!-- core -->
<g id="node3" class="node">
<title>core</title>
<path fill="#d7f5ee" stroke="#006a60" stroke-width="1.3" d="M449.3,-161C449.3,-161 393.3,-161 393.3,-161 387.3,-161 381.3,-155 381.3,-149 381.3,-149 381.3,-137 381.3,-137 381.3,-131 387.3,-125 393.3,-125 393.3,-125 449.3,-125 449.3,-125 455.3,-125 461.3,-131 461.3,-137 461.3,-137 461.3,-149 461.3,-149 461.3,-155 455.3,-161 449.3,-161"/>
<text text-anchor="middle" x="421.3" y="-140.2" font-family="Noto Sans" font-size="11.00" fill="#334155">Kotlin core</text>
</g>
<!-- ui&#45;&gt;core -->
<g id="edge2" class="edge">
<title>ui&#45;&gt;core</title>
<path fill="none" stroke="#334155" stroke-width="1.1" d="M273.4,-105.81C304.4,-113.66 343.79,-123.63 373.97,-131.27"/>
<polygon fill="#334155" stroke="#334155" stroke-width="1.1" points="373.65,-133.72 381.04,-133.06 374.86,-128.97 373.65,-133.72"/>
<text text-anchor="middle" x="327.3" y="-128.8" font-family="Noto Sans" font-size="9.00" fill="#334155">typed command</text>
</g>
<!-- db -->
<g id="node4" class="node">
<title>db</title>
<path fill="#d7f5ee" stroke="#006a60" stroke-width="1.3" d="M1147.63,-218C1147.63,-218 1116.63,-218 1116.63,-218 1110.63,-218 1104.63,-212 1104.63,-206 1104.63,-206 1104.63,-194 1104.63,-194 1104.63,-188 1110.63,-182 1116.63,-182 1116.63,-182 1147.63,-182 1147.63,-182 1153.63,-182 1159.63,-188 1159.63,-194 1159.63,-194 1159.63,-206 1159.63,-206 1159.63,-212 1153.63,-218 1147.63,-218"/>
<text text-anchor="middle" x="1132.13" y="-197.2" font-family="Noto Sans" font-size="11.00" fill="#334155">Room</text>
</g>
<!-- core&#45;&gt;db -->
<g id="edge3" class="edge">
<title>core&#45;&gt;db</title>
<path fill="none" stroke="#334155" stroke-width="1.1" d="M429.44,-161.36C438.27,-181.19 455.39,-211.72 481.3,-225 693.24,-333.61 997.11,-246.26 1097.52,-212.15"/>
<polygon fill="#334155" stroke="#334155" stroke-width="1.1" points="1098.57,-214.38 1104.39,-209.79 1096.97,-209.74 1098.57,-214.38"/>
<text text-anchor="middle" x="775.63" y="-279.8" font-family="Noto Sans" font-size="9.00" fill="#334155">transaction</text>
</g>
<!-- core&#45;&gt;db -->
<g id="edge10" class="edge">
<title>core&#45;&gt;db</title>
<path fill="none" stroke="#334155" stroke-width="1.1" d="M461.47,-153.84C468.05,-155.41 474.84,-156.87 481.3,-158 521.77,-165.08 532.34,-163.79 573.3,-167 771.59,-182.56 1010.07,-194.36 1097.17,-198.45"/>
<polygon fill="#334155" stroke="#334155" stroke-width="1.1" points="1097.29,-200.9 1104.4,-198.78 1097.52,-196.01 1097.29,-200.9"/>
<text text-anchor="middle" x="775.63" y="-185.8" font-family="Noto Sans" font-size="9.00" fill="#334155">update occurrence</text>
</g>
<!-- os -->
<g id="node5" class="node">
<title>os</title>
<ellipse fill="#dbeafe" stroke="#2563eb" stroke-width="1.3" cx="644.71" cy="-133" rx="71.34" ry="18.27"/>
<text text-anchor="middle" x="644.71" y="-130.2" font-family="Noto Sans" font-size="11.00" fill="#334155">AlarmManager</text>
</g>
<!-- core&#45;&gt;os -->
<g id="edge4" class="edge">
<title>core&#45;&gt;os</title>
<path fill="none" stroke="#334155" stroke-width="1.1" d="M461.37,-141.24C490.59,-139.92 531.46,-138.07 567.11,-136.46"/>
<polygon fill="#334155" stroke="#334155" stroke-width="1.1" points="567.28,-138.9 574.17,-136.14 567.06,-134.01 567.28,-138.9"/>
<text text-anchor="middle" x="517.3" y="-142.8" font-family="Noto Sans" font-size="9.00" fill="#334155">schedule earliest</text>
</g>
<!-- core&#45;&gt;os -->
<g id="edge11" class="edge">
<title>core&#45;&gt;os</title>
<path fill="none" stroke="#334155" stroke-width="1.1" d="M461.37,-125.45C467.91,-123.19 474.71,-121.24 481.3,-120 514.11,-113.83 551.2,-116.11 581.63,-120.37"/>
<polygon fill="#334155" stroke="#334155" stroke-width="1.1" points="581.54,-122.83 588.82,-121.42 582.25,-117.98 581.54,-122.83"/>
<text text-anchor="middle" x="517.3" y="-122.8" font-family="Noto Sans" font-size="9.00" fill="#334155">schedule next</text>
</g>
<!-- recv -->
<g id="node6" class="node">
<title>recv</title>
<path fill="#d7f5ee" stroke="#006a60" stroke-width="1.3" d="M921.13,-151C921.13,-151 847.13,-151 847.13,-151 841.13,-151 835.13,-145 835.13,-139 835.13,-139 835.13,-127 835.13,-127 835.13,-121 841.13,-115 847.13,-115 847.13,-115 921.13,-115 921.13,-115 927.13,-115 933.13,-121 933.13,-127 933.13,-127 933.13,-139 933.13,-139 933.13,-145 927.13,-151 921.13,-151"/>
<text text-anchor="middle" x="884.13" y="-130.2" font-family="Noto Sans" font-size="11.00" fill="#334155">AlarmReceiver</text>
</g>
<!-- os&#45;&gt;recv -->
<g id="edge5" class="edge">
<title>os&#45;&gt;recv</title>
<path fill="none" stroke="#334155" stroke-width="1.1" d="M716.3,-133C751.89,-133 794.41,-133 827.62,-133"/>
<polygon fill="#334155" stroke="#334155" stroke-width="1.1" points="827.99,-135.45 834.99,-133 827.99,-130.55 827.99,-135.45"/>
<text text-anchor="middle" x="775.63" y="-135.8" font-family="Noto Sans" font-size="9.00" fill="#334155">exact one&#45;shot</text>
</g>
<!-- recv&#45;&gt;db -->
<g id="edge6" class="edge">
<title>recv&#45;&gt;db</title>
<path fill="none" stroke="#334155" stroke-width="1.1" d="M933.15,-140.9C965.67,-146.77 1009.41,-155.72 1047.13,-167 1064.06,-172.06 1082.36,-179.06 1097.55,-185.32"/>
<polygon fill="#334155" stroke="#334155" stroke-width="1.1" points="1096.89,-187.7 1104.3,-188.13 1098.78,-183.17 1096.89,-187.7"/>
<text text-anchor="middle" x="1000.13" y="-169.8" font-family="Noto Sans" font-size="9.00" fill="#334155">query due</text>
</g>
<!-- recv&#45;&gt;present -->
<g id="edge7" class="edge">
<title>recv&#45;&gt;present</title>
<path fill="none" stroke="#334155" stroke-width="1.1" d="M933.15,-119.92C969.23,-110.09 1019.24,-96.47 1059.97,-85.38"/>
<polygon fill="#334155" stroke="#334155" stroke-width="1.1" points="1060.83,-87.69 1066.94,-83.48 1059.54,-82.96 1060.83,-87.69"/>
<text text-anchor="middle" x="1000.13" y="-115.8" font-family="Noto Sans" font-size="9.00" fill="#334155">locked/unlocked policy</text>
</g>
<!-- present&#45;&gt;core -->
<g id="edge9" class="edge">
<title>present&#45;&gt;core</title>
<path fill="none" stroke="#334155" stroke-width="1.1" d="M1067.08,-68.99C963.29,-74.01 751.98,-84.98 573.3,-99 532.34,-102.21 520.34,-95.21 481.3,-108 471.73,-111.13 462.06,-116.01 453.38,-121.14"/>
<polygon fill="#334155" stroke="#334155" stroke-width="1.1" points="451.94,-119.15 447.26,-124.9 454.51,-123.32 451.94,-119.15"/>
<text text-anchor="middle" x="775.63" y="-89.8" font-family="Noto Sans" font-size="9.00" fill="#334155">record action</text>
</g>
</g>
</svg>
