<?xml version="1.0" encoding="UTF-8" standalone="no"?>
<!DOCTYPE svg PUBLIC "-//W3C//DTD SVG 1.1//EN"
 "http://www.w3.org/Graphics/SVG/1.1/DTD/svg11.dtd">
<!-- Generated by graphviz version 2.42.4 (0)
 -->
<!-- Title: G Pages: 1 -->
<svg width="688pt" height="457pt"
 viewBox="0.00 0.00 688.00 457.00" xmlns="http://www.w3.org/2000/svg" xmlns:xlink="http://www.w3.org/1999/xlink">
<g id="graph0" class="graph" transform="scale(1 1) rotate(0) translate(18 439)">
<title>G</title>
<polygon fill="white" stroke="transparent" points="-18,18 -18,-439 670,-439 670,18 -18,18"/>
<!-- start -->
<g id="node1" class="node">
<title>start</title>
<path fill="#d7f5ee" stroke="#006a60" stroke-width="1.3" d="M543,-421C543,-421 391,-421 391,-421 385,-421 379,-415 379,-409 379,-409 379,-397 379,-397 379,-391 385,-385 391,-385 391,-385 543,-385 543,-385 549,-385 555,-391 555,-397 555,-397 555,-409 555,-409 555,-415 549,-421 543,-421"/>
<text text-anchor="middle" x="467" y="-400.2" font-family="Noto Sans" font-size="11.00" fill="#334155">Create first enabled reminder</text>
</g>
<!-- notif -->
<g id="node2" class="node">
<title>notif</title>
<path fill="#d7f5ee" stroke="#006a60" stroke-width="1.3" d="M455.21,-341.78C455.21,-341.78 340.79,-320.22 340.79,-320.22 334.9,-319.11 334.9,-316.89 340.79,-315.78 340.79,-315.78 455.21,-294.22 455.21,-294.22 461.1,-293.11 472.9,-293.11 478.79,-294.22 478.79,-294.22 593.21,-315.78 593.21,-315.78 599.1,-316.89 599.1,-319.11 593.21,-320.22 593.21,-320.22 478.79,-341.78 478.79,-341.78 472.9,-342.89 461.1,-342.89 455.21,-341.78"/>
<text text-anchor="middle" x="467" y="-315.2" font-family="Noto Sans" font-size="11.00" fill="#334155">Notifications allowed?</text>
</g>
<!-- start&#45;&gt;notif -->
<g id="edge1" class="edge">
<title>start&#45;&gt;notif</title>
<path fill="none" stroke="#334155" stroke-width="1.1" d="M467,-384.8C467,-375.14 467,-362.77 467,-351.37"/>
<polygon fill="#334155" stroke="#334155" stroke-width="1.1" points="469.45,-351.05 467,-344.05 464.55,-351.05 469.45,-351.05"/>
</g>
<!-- exact -->
<g id="node3" class="node">
<title>exact</title>
<path fill="#d7f5ee" stroke="#006a60" stroke-width="1.3" d="M251.25,-239.56C251.25,-239.56 149.75,-218.44 149.75,-218.44 143.87,-217.22 143.87,-214.78 149.75,-213.56 149.75,-213.56 251.25,-192.44 251.25,-192.44 257.13,-191.22 268.87,-191.22 274.75,-192.44 274.75,-192.44 376.25,-213.56 376.25,-213.56 382.13,-214.78 382.13,-217.22 376.25,-218.44 376.25,-218.44 274.75,-239.56 274.75,-239.56 268.87,-240.78 257.13,-240.78 251.25,-239.56"/>
<text text-anchor="middle" x="263" y="-213.2" font-family="Noto Sans" font-size="11.00" fill="#334155">Exact alarm access?</text>
</g>
<!-- notif&#45;&gt;exact -->
<g id="edge2" class="edge">
<title>notif&#45;&gt;exact</title>
<path fill="none" stroke="#334155" stroke-width="1.1" d="M430.06,-298.89C395.04,-281.72 342.45,-255.95 305.66,-237.91"/>
<polygon fill="#334155" stroke="#334155" stroke-width="1.1" points="306.35,-235.52 298.98,-234.64 304.19,-239.92 306.35,-235.52"/>
<text text-anchor="middle" x="379.5" y="-264.8" font-family="Noto Sans" font-size="9.00" fill="#334155">yes</text>
</g>
<!-- blocked -->
<g id="node7" class="node">
<title>blocked</title>
<path fill="#fee2e2" stroke="#b42318" stroke-width="1.3" d="M640,-235C640,-235 432,-235 432,-235 426,-235 420,-229 420,-223 420,-223 420,-209 420,-209 420,-203 426,-197 432,-197 432,-197 640,-197 640,-197 646,-197 652,-203 652,-209 652,-209 652,-223 652,-223 652,-229 646,-235 640,-235"/>
<text text-anchor="middle" x="536" y="-219.2" font-family="Noto Sans" font-size="11.00" fill="#334155">Cannot enable reliable alarm</text>
<text text-anchor="middle" x="536" y="-207.2" font-family="Noto Sans" font-size="11.00" fill="#334155">keep draft; never pretend it is scheduled</text>
</g>
<!-- notif&#45;&gt;blocked -->
<g id="edge3" class="edge">
<title>notif&#45;&gt;blocked</title>
<path fill="none" stroke="#334155" stroke-width="1.1" d="M482.31,-294.81C493.35,-278.82 508.22,-257.27 519.51,-240.9"/>
<polygon fill="#334155" stroke="#334155" stroke-width="1.1" points="521.54,-242.28 523.49,-235.12 517.5,-239.49 521.54,-242.28"/>
<text text-anchor="middle" x="508.5" y="-264.8" font-family="Noto Sans" font-size="9.00" fill="#334155">no</text>
</g>
<!-- fsi -->
<g id="node4" class="node">
<title>fsi</title>
<path fill="#d7f5ee" stroke="#006a60" stroke-width="1.3" d="M142.17,-138C142.17,-138 11.83,-116 11.83,-116 5.92,-115 5.92,-113 11.83,-112 11.83,-112 142.17,-90 142.17,-90 148.08,-89 159.92,-89 165.83,-90 165.83,-90 296.17,-112 296.17,-112 302.08,-113 302.08,-115 296.17,-116 296.17,-116 165.83,-138 165.83,-138 159.92,-139 148.08,-139 142.17,-138"/>
<text text-anchor="middle" x="154" y="-111.2" font-family="Noto Sans" font-size="11.00" fill="#334155">Full&#45;screen intent access?</text>
</g>
<!-- exact&#45;&gt;fsi -->
<g id="edge4" class="edge">
<title>exact&#45;&gt;fsi</title>
<path fill="none" stroke="#334155" stroke-width="1.1" d="M240.68,-194.52C223.86,-179.09 200.67,-157.81 182.5,-141.15"/>
<polygon fill="#334155" stroke="#334155" stroke-width="1.1" points="183.86,-139.07 177.04,-136.14 180.54,-142.68 183.86,-139.07"/>
<text text-anchor="middle" x="219.5" y="-162.8" font-family="Noto Sans" font-size="9.00" fill="#334155">yes</text>
</g>
<!-- degraded -->
<g id="node6" class="node">
<title>degraded</title>
<path fill="#fef3c7" stroke="#d97706" stroke-width="1.3" d="M458.5,-38C458.5,-38 263.5,-38 263.5,-38 257.5,-38 251.5,-32 251.5,-26 251.5,-26 251.5,-12 251.5,-12 251.5,-6 257.5,0 263.5,0 263.5,0 458.5,0 458.5,0 464.5,0 470.5,-6 470.5,-12 470.5,-12 470.5,-26 470.5,-26 470.5,-32 464.5,-38 458.5,-38"/>
<text text-anchor="middle" x="361" y="-22.2" font-family="Noto Sans" font-size="11.00" fill="#334155">Reliability: Limited</text>
<text text-anchor="middle" x="361" y="-10.2" font-family="Noto Sans" font-size="11.00" fill="#334155">show exact reason + settings shortcut</text>
</g>
<!-- exact&#45;&gt;degraded -->
<g id="edge5" class="edge">
<title>exact&#45;&gt;degraded</title>
<path fill="none" stroke="#334155" stroke-width="1.1" d="M283.16,-194.06C296.14,-179.73 312.64,-159.8 324,-140 341,-110.35 341.49,-100.83 351,-68 353.1,-60.76 354.94,-52.8 356.45,-45.46"/>
<polygon fill="#334155" stroke="#334155" stroke-width="1.1" points="358.9,-45.74 357.85,-38.4 354.09,-44.79 358.9,-45.74"/>
<text text-anchor="middle" x="390" y="-111.8" font-family="Noto Sans" font-size="9.00" fill="#334155">no: approximate only</text>
</g>
<!-- ready -->
<g id="node5" class="node">
<title>ready</title>
<path fill="#dcfce7" stroke="#15803d" stroke-width="1.3" d="M197.5,-37C197.5,-37 110.5,-37 110.5,-37 104.5,-37 98.5,-31 98.5,-25 98.5,-25 98.5,-13 98.5,-13 98.5,-7 104.5,-1 110.5,-1 110.5,-1 197.5,-1 197.5,-1 203.5,-1 209.5,-7 209.5,-13 209.5,-13 209.5,-25 209.5,-25 209.5,-31 203.5,-37 197.5,-37"/>
<text text-anchor="middle" x="154" y="-16.2" font-family="Noto Sans" font-size="11.00" fill="#334155">Reliability: Ready</text>
</g>
<!-- fsi&#45;&gt;ready -->
<g id="edge6" class="edge">
<title>fsi&#45;&gt;ready</title>
<path fill="none" stroke="#334155" stroke-width="1.1" d="M154,-87.59C154,-74.06 154,-57.52 154,-44.19"/>
<polygon fill="#334155" stroke="#334155" stroke-width="1.1" points="156.45,-44.15 154,-37.15 151.55,-44.15 156.45,-44.15"/>
<text text-anchor="middle" x="161.5" y="-60.8" font-family="Noto Sans" font-size="9.00" fill="#334155">yes</text>
</g>
<!-- fsi&#45;&gt;degraded -->
<g id="edge7" class="edge">
<title>fsi&#45;&gt;degraded</title>
<path fill="none" stroke="#334155" stroke-width="1.1" d="M171.95,-90.83C182.26,-79.46 196.1,-66.29 211,-58 223.81,-50.87 237.97,-45.05 252.33,-40.32"/>
<polygon fill="#334155" stroke="#334155" stroke-width="1.1" points="253.46,-42.53 259.39,-38.07 251.98,-37.86 253.46,-42.53"/>
<text text-anchor="middle" x="279" y="-60.8" font-family="Noto Sans" font-size="9.00" fill="#334155">no: lockscreen heads&#45;up fallback</text>
</g>
</g>
</svg>
